# xmcd
#
# Track frame offsets:
#	150
#	12991
#	28651
#	41272
#	56943
#	73014
#	86858
#	103463
#	117788
#	135451
#	148900
#	161137
#	174982
#	191428
#	204641
#	217314
#	230296
#	245579
#	260325
#	277325
#	292750
#	305091
#	324664
#
# Disc length: 4578 seconds
#
# Revision: 1
# Processed by: cddbd v1.5.2PL0 Copyright (c) Steve Scherf et al.
# Submitted via: audiograbber 1.83.01
#
DISCID=6b11e017
DTITLE=Kenny Rogers - Kenny Rogers/Kenny
DYEAR=2007
DGENRE=Country
TTITLE0=Laura (What's He Got That I Ain't Got)
TTITLE1=I Wasn't Man Enough
TTITLE2=Mother Country Music
TTITLE3=Why Don't We Go Somewhere And Love
TTITLE4=Green, Green Grass Of Home
TTITLE5=Till I Get It Right
TTITLE6=Lucille
TTITLE7=The Son Of Hickory Holler's Tramp
TTITLE8=Lay Down Beside Me
TTITLE9=Puttin' In Overtime At Home
TTITLE10=While I Play The Fiddle
TTITLE11=You Turn The Light On
TTITLE12=You Decorated My Life
TTITLE13=She's A Mystery
TTITLE14=Goodbye Marie
TTITLE15=Tulsa Turnaround
TTITLE16=I Want To Make You Smile
TTITLE17=Santiago Midnight Moonlight
TTITLE18=One Man's Woman
TTITLE19=In And Out Of Your Heart
TTITLE20=Old Folks
TTITLE21=Coward Of The County
TTITLE22=She Believes In Me
EXTD=
EXTT0=
EXTT1=
EXTT2=
EXTT3=
EXTT4=
EXTT5=
EXTT6=
EXTT7=
EXTT8=
EXTT9=
EXTT10=
EXTT11=
EXTT12=
EXTT13=
EXTT14=
EXTT15=
EXTT16=
EXTT17=
EXTT18=
EXTT19=
EXTT20=
EXTT21=
EXTT22=
PLAYORDER=
